<!DOCTYPE svg PUBLIC "-//W3C//DTD SVG 20010904//EN" "http://www.w3.org/TR/2001/REC-SVG-20010904/DTD/svg10.dtd">
<svg xmlns="http://www.w3.org/2000/svg" width="380.952mm" height="63.4921mm" viewBox="0 0 1080 180">
     <path id="red" fill="#d23740" d="M 0.00,101.99      C 0.00,101.99 138.49,155.99 138.49,155.99      138.49,155.99 1080.00,28.00 1080.00,28.00      1080.00,28.00 1079.94,180.00 1079.94,180.00      1079.94,180.00 0.00,179.98 0.00,179.98      0.00,179.98 0.00,101.99 0.00,101.99 Z      M 0.00,93.00            C 0.00,93.00 138.65,152.13 138.65,152.13              138.65,152.13 1079.98,1.98 1079.98,1.98              1079.98,1.98 1079.99,28.00 1079.99,28.00              1079.99,28.00 138.48,155.99 138.48,155.99              138.48,155.99 0.01,101.99 0.01,101.99 "/>
     <path id="red" fill="#1ea1ad" d="M 0.00,101.99      C 0.00,101.99 138.49,155.99 138.49,155.99      138.49,155.99 1080.00,28.00 1080.00,28.00      1080.00,28.00 1079.94,180.00 1079.94,180.00      1079.94,180.00 0.00,179.98 0.00,179.98      0.00,179.98 0.00,101.99 0.00,101.99 Z      M 0.00,93.00"/>
</svg>