<?xml version="1.0" standalone="no"?>
<!DOCTYPE svg PUBLIC "-//W3C//DTD SVG 20010904//EN"
 "http://www.w3.org/TR/2001/REC-SVG-20010904/DTD/svg10.dtd">
<svg version="1.0" xmlns="http://www.w3.org/2000/svg"
 width="1105.000000pt" height="149.000000pt" viewBox="0 0 1105.000000 149.000000"
 preserveAspectRatio="xMidYMid meet">

<g transform="translate(0.000000,149.000000) scale(0.100000,-0.100000)"
fill="#000000" stroke="none">
<path d="M0 1284 c0 -200 1 -205 20 -199 11 3 149 62 307 131 157 68 295 124
306 124 17 0 681 -191 2539 -731 340 -98 629 -179 643 -179 13 0 534 63 1157
140 623 76 2089 257 3258 400 1169 144 2280 280 2470 304 l345 42 3 87 3 87
-5526 0 -5525 0 0 -206z"/>
</g>
</svg>
