<?xml version="1.0" standalone="no"?>
<!DOCTYPE svg PUBLIC "-//W3C//DTD SVG 20010904//EN"
 "http://www.w3.org/TR/2001/REC-SVG-20010904/DTD/svg10.dtd">
<svg version="1.0" xmlns="http://www.w3.org/2000/svg"
 width="1105.000000pt" height="149.000000pt" viewBox="0 0 1105.000000 149.000000"
 preserveAspectRatio="xMidYMid meet">

<g transform="translate(0.000000,149.000000) scale(0.100000,-0.100000)"
fill="#000000" stroke="none">
<path d="M305 1215 l-300 -132 -3 -91 -3 -91 321 181 320 181 1586 -610 1585
-610 1837 308 c1484 248 4670 782 5267 882 126 21 130 23 133 48 3 23 0 26
-20 23 -13 -3 -561 -69 -1218 -149 -657 -79 -1510 -183 -1895 -229 -2648 -322
-3998 -486 -4050 -491 -64 -7 31 -34 -2702 760 -293 85 -538 155 -545 154 -7
-1 -148 -61 -313 -134z"/>
</g>
</svg>
